<?xml version="1.0" standalone="no"?>
<!DOCTYPE svg PUBLIC "-//W3C//DTD SVG 20010904//EN"
 "http://www.w3.org/TR/2001/REC-SVG-20010904/DTD/svg10.dtd">
<svg version="1.0" xmlns="http://www.w3.org/2000/svg"
 width="700.000000pt" height="700.000000pt" viewBox="0 0 700.000000 700.000000"
 preserveAspectRatio="xMidYMid meet">
<metadata>
Created by potrace 1.14, written by Peter Selinger 2001-2017
</metadata>
<g transform="translate(0.000000,700.000000) scale(0.100000,-0.100000)"
fill="#000000" stroke="none">
<path d="M3299 6996 c-2 -2 -48 -7 -102 -10 -54 -4 -104 -9 -110 -11 -7 -2
-37 -6 -67 -10 -48 -5 -185 -28 -245 -42 -11 -2 -31 -6 -45 -9 -126 -25 -454
-129 -567 -180 -28 -13 -54 -24 -58 -24 -11 0 -281 -136 -355 -180 -151 -88
-450 -296 -490 -341 -3 -3 -43 -39 -90 -80 -419 -370 -753 -861 -952 -1394
-16 -44 -31 -88 -33 -98 -2 -9 -7 -22 -10 -27 -3 -5 -22 -65 -41 -132 -34
-122 -39 -142 -49 -195 -3 -16 -10 -48 -15 -73 -23 -110 -37 -204 -57 -400
-10 -98 -10 -551 0 -615 4 -27 12 -84 18 -125 5 -41 11 -86 14 -100 21 -126
30 -171 56 -277 29 -120 116 -400 143 -458 8 -16 26 -59 41 -95 34 -81 147
-308 180 -360 14 -22 25 -42 25 -45 0 -6 172 -265 195 -293 7 -9 44 -56 82
-103 57 -72 188 -223 229 -263 79 -78 239 -224 290 -266 97 -79 414 -300 430
-300 2 0 22 -11 43 -24 59 -38 286 -150 386 -191 310 -129 622 -211 948 -250
31 -4 60 -11 63 -16 7 -12 620 -12 642 0 9 5 49 11 87 15 39 4 81 8 95 11 14
2 70 11 125 20 136 21 322 68 480 120 556 183 1053 496 1449 914 77 81 76 80
152 171 296 356 516 759 653 1195 44 140 76 268 97 385 4 19 8 44 10 55 10 52
23 146 29 200 3 33 9 83 13 110 15 109 7 592 -13 705 -2 14 -7 46 -10 72 -5
39 -24 150 -50 283 -10 54 -74 278 -104 366 -65 194 -177 439 -284 624 -38 66
-166 264 -177 275 -3 3 -32 41 -64 85 -33 44 -62 82 -65 85 -3 3 -28 32 -56
65 -27 33 -59 70 -70 83 -29 34 -232 234 -284 279 -24 21 -53 47 -65 57 -35
31 -279 211 -313 231 -18 11 -33 23 -33 27 0 4 -4 8 -8 8 -5 0 -51 26 -103 57
-310 187 -709 343 -1066 418 -91 18 -103 20 -238 39 -60 9 -128 19 -150 22
-44 7 -529 16 -536 10z"/>
</g>
</svg>
