<svg width="25" height="10" viewBox="0 0 25 10" fill="none" xmlns="http://www.w3.org/2000/svg">
<rect width="25" height="10" rx="3" fill="#E00034" fill-opacity="0.79"/>
<path d="M8.17352 7.9C7.87352 7.85333 7.57685 7.62333 7.28352 7.21C6.99018 6.79 6.72018 6.31333 6.47352 5.78C6.22685 5.24667 6.03018 4.77333 5.88352 4.36L5.66352 3.75C5.71018 4.19 5.73352 4.63667 5.73352 5.09C5.73352 5.27 5.72352 5.56333 5.70352 5.97C5.68352 6.37667 5.58685 6.79 5.41352 7.21C5.24685 7.63 4.99685 7.84 4.66352 7.84H4.64352C4.14352 7.79333 3.85352 7.41 3.77352 6.69C3.74018 6.38333 3.72352 6.03667 3.72352 5.65C3.72352 5.12333 3.75352 4.52 3.81352 3.84C3.82685 3.54667 3.88352 3.20333 3.98352 2.81C4.08352 2.41 4.25018 2.06333 4.48352 1.77C4.69685 1.51 4.98352 1.38 5.34352 1.38C5.67685 1.38 6.00018 1.6 6.31352 2.04C6.78018 2.70667 7.18018 3.57667 7.51352 4.65L7.68352 5.22L7.65352 4.79C7.62018 4.41 7.60352 3.99667 7.60352 3.55C7.60352 3.19667 7.62018 2.83 7.65352 2.45C7.69352 2.07 7.77352 1.75 7.89352 1.49C8.01352 1.22333 8.18685 1.09 8.41352 1.09H8.44352C8.85685 1.16333 9.14685 1.54333 9.31352 2.23C9.44685 2.77 9.51352 3.37 9.51352 4.03C9.51352 4.21667 9.49685 4.58 9.46352 5.12C9.43685 5.66 9.30685 6.26 9.07352 6.92C8.84685 7.57333 8.54685 7.9 8.17352 7.9ZM11.3591 7.96C11.0391 7.96 10.7391 7.86333 10.4591 7.67C10.0125 7.33667 9.76247 6.77 9.70914 5.97L9.69914 5.44C9.69914 5.13333 9.71247 4.82667 9.73914 4.52C9.74581 4.51333 9.74914 4.50333 9.74914 4.49C9.76914 3.95667 9.84581 3.43333 9.97914 2.92C10.1125 2.44667 10.3425 2.02667 10.6691 1.66C11.0558 1.26667 11.5225 1.03667 12.0691 0.97C12.1491 0.956666 12.2291 0.95 12.3091 0.95C12.5425 0.95 12.7658 1.00333 12.9791 1.11C13.2791 1.26333 13.4658 1.5 13.5391 1.82L13.5491 1.95C13.5491 2.11 13.5025 2.27667 13.4091 2.45C13.3225 2.61667 13.1891 2.75667 13.0091 2.87C12.6558 3.08333 12.2625 3.2 11.8291 3.22C11.6758 3.22 11.5225 3.24667 11.3691 3.3C11.2225 3.35333 11.1225 3.45333 11.0691 3.6L11.0591 3.68C11.0591 3.78667 11.1025 3.87667 11.1891 3.95C11.2558 4.00333 11.3291 4.03 11.4091 4.03C11.4891 4.03 11.5858 4.01667 11.6991 3.99C11.8125 3.95667 11.9158 3.94 12.0091 3.94C12.1025 3.94 12.1891 3.96 12.2691 4C12.4025 4.08 12.4691 4.18667 12.4691 4.32C12.4691 4.45333 12.4058 4.58 12.2791 4.7C12.1591 4.81333 12.0091 4.9 11.8291 4.96C11.6491 5.02 11.4925 5.11 11.3591 5.23C11.2458 5.33 11.1891 5.45 11.1891 5.59C11.1891 5.63667 11.1991 5.68333 11.2191 5.73C11.2925 5.89 11.4291 5.97 11.6291 5.97C11.6891 5.97 11.7458 5.96 11.7991 5.94C12.0325 5.84 12.2258 5.66 12.3791 5.4C12.4858 5.24 12.6091 5.1 12.7491 4.98C12.9225 4.85333 13.1158 4.79 13.3291 4.79C13.5158 4.79 13.6891 4.84667 13.8491 4.96C14.0091 5.07333 14.1225 5.22667 14.1891 5.42C14.2225 5.51333 14.2391 5.61 14.2391 5.71C14.2391 5.80333 14.2225 5.9 14.1891 6C14.0958 6.23333 13.9525 6.44 13.7591 6.62C13.4391 6.98 13.0758 7.29333 12.6691 7.56C12.2691 7.82667 11.8325 7.96 11.3591 7.96ZM16.1955 7.9C16.1355 7.9 16.0821 7.89333 16.0355 7.88C15.5821 7.75333 15.2355 7.48333 14.9955 7.07C14.7755 6.67667 14.6388 6.25 14.5855 5.79C14.5188 5.24333 14.4855 4.69667 14.4855 4.15C14.4855 3.63667 14.5155 3.12 14.5755 2.6C14.5821 2.22 14.6688 1.86667 14.8355 1.54C14.9355 1.38 15.0688 1.25667 15.2355 1.17C15.3355 1.11667 15.4421 1.09 15.5555 1.09C15.6221 1.09 15.6888 1.1 15.7555 1.12C16.1555 1.27333 16.3555 1.68667 16.3555 2.36L16.4455 4.12C16.4455 4.28667 16.4855 4.44333 16.5655 4.59C16.6455 4.69667 16.7488 4.75 16.8755 4.75C16.9288 4.75 16.9955 4.72667 17.0755 4.68C17.1555 4.63333 17.2188 4.55333 17.2655 4.44C17.3121 4.32 17.3455 4.21 17.3655 4.11C17.3855 4.00333 17.4088 3.90333 17.4355 3.81C17.4688 3.71667 17.5221 3.63 17.5955 3.55C17.6688 3.47 17.7588 3.42667 17.8655 3.42C18.0655 3.43333 18.2355 3.57667 18.3755 3.85L18.3855 3.88C18.4455 4 18.5188 4.11667 18.6055 4.23C18.6921 4.33667 18.8055 4.39 18.9455 4.39C19.0721 4.39 19.1855 4.34333 19.2855 4.25C19.3921 4.15 19.4655 4.03333 19.5055 3.9C19.5455 3.76 19.5755 3.61667 19.5955 3.47L19.7855 2.22C19.8388 1.68 20.0388 1.37667 20.3855 1.31H20.4255C20.5188 1.31 20.6088 1.33333 20.6955 1.38C20.9288 1.51333 21.0755 1.78 21.1355 2.18L21.1755 2.45C21.2488 2.89 21.2855 3.35333 21.2855 3.84C21.2855 4.64 21.1788 5.43667 20.9655 6.23C20.8855 6.57667 20.7421 6.88667 20.5355 7.16C20.2888 7.46667 19.9588 7.62 19.5455 7.62C19.1521 7.62 18.7655 7.31333 18.3855 6.7C18.2721 6.48667 18.1621 6.38 18.0555 6.38C17.9488 6.38 17.8421 6.49333 17.7355 6.72C17.3088 7.50667 16.7955 7.9 16.1955 7.9Z" fill="white"/>
</svg>
