<svg width="19" height="18" viewBox="0 0 19 18" fill="none" xmlns="http://www.w3.org/2000/svg">
<path d="M8.41113 1.5C12.134 1.5 15.1555 4.524 15.1555 8.25C15.1555 11.976 12.134 15 8.41113 15C4.68823 15 1.66675 11.976 1.66675 8.25C1.66675 4.524 4.68823 1.5 8.41113 1.5ZM8.41113 13.5C11.309 13.5 13.6568 11.1503 13.6568 8.25C13.6568 5.34975 11.309 3 8.41113 3C5.5133 3 3.1655 5.34975 3.1655 8.25C3.1655 11.1503 5.5133 13.5 8.41113 13.5ZM14.7696 13.5532L16.8896 15.6742L15.8292 16.7355L13.71 14.6138L14.7696 13.5532Z" fill="white"/>
</svg>
