<svg width="19" height="18" viewBox="0 0 19 18" fill="none" xmlns="http://www.w3.org/2000/svg">
<path d="M4.57949 1.5L2.33136 4.5V15C2.33136 15.3978 2.48926 15.7794 2.77033 16.0607C3.0514 16.342 3.43262 16.5 3.83011 16.5H14.3214C14.7189 16.5 15.1001 16.342 15.3812 16.0607C15.6622 15.7794 15.8201 15.3978 15.8201 15V4.5L13.572 1.5H4.57949Z" stroke="white" stroke-width="2" stroke-linecap="round" stroke-linejoin="round"/>
<path d="M2.33136 4.5H15.8201" stroke="white" stroke-width="2" stroke-linecap="round" stroke-linejoin="round"/>
<path d="M12.0733 7.5C12.0733 8.29565 11.7574 9.05871 11.1953 9.62132C10.6332 10.1839 9.87074 10.5 9.07575 10.5C8.28076 10.5 7.51834 10.1839 6.9562 9.62132C6.39405 9.05871 6.07825 8.29565 6.07825 7.5" stroke="white" stroke-width="2" stroke-linecap="round" stroke-linejoin="round"/>
</svg>
