<svg width="15" height="15" viewBox="0 0 15 15" fill="none" xmlns="http://www.w3.org/2000/svg">
<path d="M13.5938 4.21875V10.7812C13.5938 11.5579 12.9642 12.1875 12.1875 12.1875H2.8125C2.03585 12.1875 1.40625 11.5579 1.40625 10.7812V4.21875M13.5938 4.21875C13.5938 3.4421 12.9642 2.8125 12.1875 2.8125H2.8125C2.03585 2.8125 1.40625 3.4421 1.40625 4.21875M13.5938 4.21875V4.37044C13.5938 4.85878 13.3404 5.31215 12.9245 5.56809L8.23701 8.4527C7.78503 8.73084 7.21497 8.73085 6.76299 8.4527L2.07549 5.56809C1.65959 5.31215 1.40625 4.85878 1.40625 4.37044V4.21875" stroke="white" stroke-width="1.5" stroke-linecap="round" stroke-linejoin="round"/>
</svg>
